<?xml version="1.0" standalone="no"?>
<!DOCTYPE svg PUBLIC "-//W3C//DTD SVG 20010904//EN"
 "http://www.w3.org/TR/2001/REC-SVG-20010904/DTD/svg10.dtd">
<svg version="1.0" xmlns="http://www.w3.org/2000/svg"
 width="1024.000000pt" height="1024.000000pt" viewBox="0 0 1024.000000 1024.000000"
 preserveAspectRatio="xMidYMid meet">
<metadata>
Created by potrace 1.14, written by Peter Selinger 2001-2017
</metadata>
<g transform="translate(0.000000,1024.000000) scale(0.100000,-0.100000)"
fill="#000000" stroke="none">
<path d="M4025 10224 c-77 -18 -76 -18 -102 -32 -13 -7 -23 -10 -23 -8 0 10
-154 -85 -199 -122 -65 -53 -161 -150 -161 -162 0 -5 -3 -10 -8 -10 -15 0
-182 -229 -182 -249 0 -6 -4 -11 -9 -11 -5 0 -14 -14 -21 -31 -7 -17 -18 -36
-24 -43 -6 -6 -22 -34 -36 -61 -14 -28 -35 -66 -47 -86 -12 -20 -19 -40 -16
-43 4 -3 1 -6 -5 -6 -7 0 -12 -8 -12 -18 0 -10 -4 -22 -10 -28 -26 -26 -242
-566 -265 -662 -8 -33 -55 -167 -65 -187 -7 -13 -23 -22 -43 -23 -18 -2 -48
-7 -67 -12 -19 -5 -52 -11 -74 -14 -21 -4 -42 -8 -46 -11 -5 -3 -21 -7 -37 -9
-15 -2 -50 -9 -78 -16 -27 -6 -58 -14 -67 -16 -10 -2 -28 -7 -40 -10 -13 -3
-30 -7 -38 -9 -8 -2 -15 -4 -15 -5 0 -1 -9 -3 -20 -5 -11 -2 -67 -18 -125 -36
-58 -17 -109 -32 -115 -33 -5 -1 -21 -8 -35 -16 -14 -7 -27 -13 -30 -12 -7 3
-103 -29 -115 -38 -5 -3 -32 -15 -60 -25 -77 -27 -287 -134 -305 -155 -3 -3
-18 -14 -33 -23 -61 -39 -147 -123 -169 -166 -7 -14 -15 -28 -18 -31 -15 -13
-28 -88 -26 -139 4 -67 42 -146 92 -195 64 -62 104 -96 104 -89 0 4 4 3 8 -3
19 -28 155 -106 292 -167 98 -44 287 -114 331 -122 10 -2 27 -9 38 -15 12 -6
21 -8 21 -6 0 3 18 -1 40 -9 22 -8 40 -12 40 -10 0 2 16 -3 35 -11 19 -8 36
-14 37 -13 2 1 23 -4 48 -11 25 -7 56 -14 70 -17 34 -7 39 -8 87 -22 l43 -12
-4 -78 c-2 -44 -7 -84 -10 -90 -4 -6 -4 -11 1 -11 4 0 8 -11 8 -25 0 -14 -3
-25 -7 -25 -4 0 -3 -11 2 -25 6 -15 6 -26 -1 -30 -5 -4 -6 -12 -2 -18 4 -6 8
-43 9 -82 1 -65 11 -173 19 -215 2 -10 7 -40 10 -67 6 -40 17 -92 41 -195 2
-10 6 -27 8 -38 3 -10 25 -81 50 -156 25 -75 46 -138 46 -139 0 -4 -189 -7
-235 -5 -16 1 -37 2 -45 1 -63 -3 -122 -1 -130 4 -6 3 -10 2 -10 -3 0 -5 -19
-6 -42 -3 -24 4 -59 4 -78 1 -19 -3 -46 -3 -60 1 -14 3 -34 3 -45 -1 -11 -4
-31 -4 -45 0 -14 4 -39 3 -56 0 -18 -4 -38 -4 -44 0 -7 4 -24 4 -39 0 -14 -4
-35 -4 -45 0 -11 3 -39 3 -63 0 -23 -4 -43 -4 -43 0 0 4 -20 4 -43 0 -24 -3
-52 -3 -62 0 -10 3 -38 3 -62 0 -24 -4 -46 -4 -48 0 -5 7 -70 -8 -116 -27 -37
-16 -102 -84 -124 -129 -36 -76 -27 -175 27 -294 9 -19 37 -89 63 -155 26 -66
50 -124 53 -130 4 -5 7 -14 8 -20 2 -9 82 -211 103 -260 8 -17 21 -50 26 -65
1 -3 7 -18 14 -35 7 -16 33 -82 58 -145 25 -63 51 -128 59 -145 7 -16 34 -84
59 -150 26 -66 53 -133 61 -149 8 -16 14 -33 14 -38 0 -4 10 -30 21 -56 32
-72 44 -100 79 -192 17 -47 38 -98 45 -115 28 -62 75 -187 75 -198 0 -7 -15
-22 -33 -34 -17 -13 -45 -34 -62 -48 -16 -14 -50 -42 -75 -63 -129 -107 -288
-266 -399 -397 -41 -49 -78 -92 -81 -95 -33 -31 -230 -314 -230 -331 0 -5 -4
-9 -9 -9 -5 0 -13 -10 -17 -22 -4 -13 -10 -25 -15 -28 -14 -10 -180 -330 -219
-425 -4 -11 -17 -41 -29 -67 -12 -26 -21 -52 -21 -58 0 -6 -4 -18 -10 -28 -8
-14 -33 -80 -44 -117 -2 -5 -6 -17 -9 -25 -3 -8 -13 -42 -22 -75 -9 -33 -19
-67 -22 -75 -8 -19 -7 -17 -17 -65 -4 -22 -11 -44 -14 -50 -3 -5 -7 -16 -8
-25 0 -8 -11 -62 -22 -120 -12 -58 -24 -122 -28 -144 -3 -21 -7 -48 -10 -59
-2 -12 -6 -53 -10 -92 -3 -38 -8 -79 -11 -90 -2 -11 -6 -103 -8 -205 -5 -201
2 -256 48 -360 38 -85 98 -159 195 -241 22 -18 146 -79 163 -79 9 0 19 -3 22
-7 4 -3 24 -9 45 -12 20 -3 1830 -6 4022 -6 l3985 0 65 23 c208 75 350 234
398 447 12 53 4 515 -9 515 -3 0 -6 20 -8 44 -1 25 -4 55 -7 68 -3 13 -6 30
-6 38 0 8 -6 44 -13 80 -7 36 -16 81 -19 100 -3 19 -11 55 -19 80 -7 25 -12
51 -9 58 2 6 0 12 -5 12 -5 0 -10 10 -11 23 -3 27 -7 47 -15 67 -3 8 -15 49
-27 90 -53 184 -211 547 -306 705 -13 22 -27 48 -30 57 -4 10 -10 18 -15 18
-5 0 -8 3 -7 8 2 7 -108 182 -121 192 -3 3 -20 25 -36 50 -16 25 -32 47 -35
50 -3 3 -17 21 -30 40 -13 19 -29 40 -35 46 -5 6 -28 32 -50 59 -107 128 -288
314 -395 405 -35 30 -76 65 -90 78 -14 12 -46 37 -72 55 -26 18 -48 36 -48 40
0 5 28 79 62 165 35 87 63 159 64 162 0 3 6 18 12 33 7 16 21 52 33 80 12 29
25 61 30 72 4 11 27 67 49 125 22 58 45 114 50 125 5 11 23 56 40 100 17 44
37 94 45 112 8 17 15 34 15 38 0 4 6 21 14 38 7 18 21 52 31 77 10 25 26 63
35 85 10 22 26 63 36 90 10 28 24 61 31 74 6 14 10 28 7 33 -3 4 0 8 5 8 6 0
11 7 11 15 0 8 4 23 9 33 8 14 18 37 26 62 1 3 7 19 14 35 26 62 52 135 51
141 -1 4 2 10 7 13 5 3 17 29 27 56 10 28 24 64 31 80 20 47 40 100 40 105 0
3 3 10 6 15 8 12 6 126 -2 140 -4 6 -9 22 -13 38 -3 15 -11 27 -16 27 -6 0
-10 6 -10 13 0 18 -51 62 -101 89 -30 15 -65 22 -132 25 -114 5 -177 4 -188
-3 -5 -3 -9 -1 -9 4 0 5 -19 6 -43 2 -24 -3 -52 -3 -63 0 -10 4 -30 4 -44 0
-14 -4 -34 -4 -45 0 -11 4 -31 4 -45 0 -14 -4 -36 -4 -50 0 -14 4 -34 4 -45 0
-11 -4 -31 -4 -45 -1 -14 4 -41 4 -60 1 -19 -3 -54 -3 -77 1 -24 3 -43 2 -43
-3 0 -5 -4 -6 -10 -3 -5 3 -33 5 -62 5 -63 -1 -73 -1 -160 1 -37 0 -72 -2 -77
-5 -5 -4 -12 -2 -15 3 -3 5 -21 6 -40 1 -58 -13 -62 -2 -27 91 17 46 34 100
37 119 4 19 10 40 14 45 7 10 43 157 54 220 3 17 7 39 9 50 12 52 27 184 32
283 2 41 6 76 9 79 2 3 1 16 -4 29 -6 14 -6 26 0 29 6 3 6 15 0 30 -6 16 -6
27 1 31 5 3 6 11 2 17 -5 7 -8 50 -8 97 l0 84 35 8 c19 4 44 10 55 12 11 3 29
7 40 9 56 13 286 78 325 92 25 9 53 18 63 20 61 13 349 133 397 166 14 9 28
17 32 18 32 7 176 109 226 161 30 30 84 105 88 120 0 3 5 14 10 25 5 11 9 50
9 86 0 104 -52 190 -176 292 -25 20 -51 37 -57 37 -6 0 -12 4 -14 9 -4 12
-180 108 -228 126 -3 1 -21 9 -40 17 -35 15 -71 30 -80 33 -3 1 -18 7 -35 14
-16 7 -34 14 -40 15 -5 2 -17 6 -25 9 -8 3 -60 20 -115 37 -55 18 -107 34
-115 37 -8 3 -22 7 -30 9 -8 1 -60 14 -115 29 -125 33 -145 38 -207 49 -13 2
-43 9 -68 16 -25 7 -58 14 -73 16 -16 2 -39 7 -51 10 -11 4 -28 8 -36 9 -8 1
-22 2 -32 3 -11 1 -26 31 -48 98 -17 53 -33 105 -35 115 -2 11 -7 25 -12 32
-4 6 -8 17 -9 22 -2 11 -40 116 -54 150 -4 11 -22 58 -40 105 -101 267 -251
565 -374 745 -49 71 -56 81 -78 106 -10 10 -16 19 -14 19 20 0 -203 220 -260
257 -186 119 -274 145 -479 137 -111 -4 -176 -9 -182 -14 -2 -1 -12 -4 -23 -5
-11 -1 -21 -3 -22 -5 -3 -2 -14 -4 -53 -13 -24 -6 -124 -45 -139 -55 -6 -4
-14 -7 -17 -7 -3 0 -66 -39 -140 -86 -165 -106 -202 -121 -303 -124 -117 -4
-175 16 -301 101 -110 75 -189 119 -255 143 -36 13 -74 27 -85 31 -11 5 -28 9
-37 9 -35 2 -48 4 -48 10 0 7 -9 8 -185 14 -102 4 -156 2 -200 -9z m-730
-3388 c22 -3 58 -7 80 -11 38 -5 98 -12 169 -20 17 -2 51 -6 76 -9 79 -10 246
-25 322 -30 15 -1 29 -4 33 -8 4 -3 19 -2 35 2 16 4 31 6 34 2 3 -3 25 -6 48
-7 24 -2 99 -6 168 -10 191 -11 243 -13 555 -20 340 -8 271 -8 625 -1 278 6
354 9 550 21 52 4 124 8 160 10 74 4 191 13 265 21 28 2 73 7 100 9 65 6 147
15 270 30 33 4 74 8 91 10 17 1 35 4 40 7 5 3 24 4 42 3 17 0 32 2 32 6 0 3
12 5 27 4 21 -1 27 -6 27 -28 1 -15 -2 -27 -7 -27 -4 0 -3 -9 3 -19 7 -14 7
-22 -1 -27 -7 -4 -8 -9 0 -17 7 -7 7 -16 0 -29 -7 -12 -6 -18 1 -18 8 0 8 -6
0 -20 -8 -14 -8 -20 0 -20 8 0 8 -6 0 -20 -8 -14 -8 -20 0 -20 8 0 8 -6 0 -20
-8 -14 -8 -20 0 -20 6 0 8 -5 4 -11 -3 -6 -8 -35 -9 -65 -2 -29 -11 -82 -20
-116 -9 -35 -18 -67 -19 -73 -2 -13 -62 -134 -78 -160 -43 -67 -168 -205 -187
-205 -3 0 -17 -10 -31 -23 -14 -12 -36 -28 -50 -35 -14 -6 -32 -16 -40 -21
-31 -19 -110 -51 -141 -56 -18 -3 -37 -9 -42 -12 -5 -3 -28 -8 -51 -11 -23 -2
-43 -8 -44 -13 -2 -5 -9 -6 -15 -2 -12 7 -91 8 -104 0 -4 -2 -17 -1 -27 3 -11
3 -37 3 -58 0 -21 -4 -38 -4 -38 0 0 4 -20 4 -45 0 -25 -4 -45 -4 -45 -1 0 3
-21 6 -48 7 -123 2 -245 39 -349 104 -35 22 -67 40 -70 40 -9 0 -163 161 -163
170 0 5 -6 15 -14 22 -11 12 -54 97 -99 198 -19 43 -65 79 -113 86 -36 5 -53
2 -90 -17 -50 -26 -71 -55 -99 -139 -18 -53 -96 -171 -153 -232 -26 -28 -74
-69 -107 -93 -65 -45 -165 -99 -165 -89 0 4 -6 2 -12 -4 -27 -22 -200 -55
-283 -53 -5 0 -32 0 -60 0 -53 0 -77 1 -97 2 -7 0 -31 0 -53 -1 -115 -3 -302
36 -362 75 -12 8 -29 15 -38 15 -8 0 -15 5 -15 10 0 6 -5 10 -10 10 -18 0
-115 76 -174 135 -72 73 -129 162 -167 260 -40 104 -46 128 -53 223 -2 29 -6
56 -10 59 -3 3 -1 12 5 19 7 8 7 14 -1 19 -6 4 -7 12 -1 24 6 10 6 23 1 31 -5
8 -5 21 1 31 6 11 5 20 -1 24 -6 4 -6 15 0 30 6 15 6 25 0 25 -5 0 -5 12 0 30
5 17 5 32 0 35 -19 12 2 32 28 29 15 -2 45 -6 67 -8z m3740 -2373 c-5 -23 -34
-142 -41 -168 -4 -11 -7 -28 -7 -37 -1 -10 -5 -18 -10 -18 -4 0 -6 -3 -4 -7 3
-5 -8 -57 -25 -118 -16 -60 -31 -119 -32 -130 -2 -11 -5 -27 -9 -35 -3 -8 -28
-108 -56 -222 -28 -115 -74 -301 -102 -415 -28 -115 -54 -215 -57 -223 -3 -8
-6 -22 -7 -30 -2 -19 -15 -70 -22 -90 -3 -8 -8 -24 -10 -35 -2 -11 -8 -38 -14
-60 -6 -22 -13 -48 -15 -57 -10 -44 -13 -57 -29 -118 -17 -64 -20 -79 -30
-121 -2 -11 -7 -29 -10 -39 -3 -10 -8 -27 -10 -38 -2 -12 -15 -64 -29 -117
-14 -53 -24 -101 -20 -106 3 -5 0 -9 -6 -9 -7 0 -10 -7 -7 -15 4 -8 2 -17 -3
-20 -5 -3 -9 -13 -9 -23 1 -9 -9 -53 -21 -97 -21 -78 -25 -92 -35 -136 -2 -11
-7 -29 -10 -39 -3 -10 -8 -27 -10 -37 -5 -23 -34 -142 -41 -168 -4 -11 -7 -28
-7 -37 -1 -10 -5 -18 -10 -18 -4 0 -6 -4 -3 -8 2 -4 -4 -39 -15 -77 -11 -39
-22 -79 -24 -90 -6 -29 -13 -60 -15 -62 -2 -2 -3 -11 -5 -20 -1 -10 -4 -25 -8
-33 -3 -8 -10 -35 -15 -60 -14 -67 -162 -653 -169 -670 -4 -10 -9 -3 -14 20
-4 19 -21 91 -39 160 -17 69 -34 139 -37 155 -3 17 -8 32 -11 35 -4 3 -8 15
-9 27 -3 22 -93 394 -113 463 -8 30 -124 489 -136 545 -3 11 -7 29 -10 40 -2
11 -22 90 -44 175 -22 85 -42 164 -44 175 -2 11 -9 40 -16 65 -7 25 -14 53
-16 63 -2 10 -6 27 -9 37 -3 10 -8 27 -10 37 -2 10 -18 74 -35 143 -18 69 -34
133 -36 143 -2 9 -6 25 -8 35 -2 9 -14 55 -26 102 -12 47 -24 93 -26 103 -2
10 69 162 156 338 l160 319 628 313 c345 171 629 315 630 320 7 15 21 6 17
-10z m-3185 -308 l630 -315 160 -319 c103 -206 158 -327 155 -340 -8 -33 -12
-49 -40 -161 -15 -58 -29 -113 -31 -122 -7 -33 -12 -53 -49 -198 -20 -80 -38
-152 -40 -160 -2 -8 -9 -35 -16 -60 -6 -25 -14 -52 -15 -60 -2 -8 -5 -26 -8
-40 -3 -14 -16 -67 -30 -117 -13 -51 -22 -93 -19 -93 3 0 1 -6 -4 -12 -6 -7
-14 -31 -18 -53 -10 -50 -9 -44 -35 -145 -12 -47 -23 -92 -25 -100 -2 -8 -20
-80 -40 -160 -35 -138 -39 -156 -49 -198 -2 -9 -12 -46 -21 -82 -9 -36 -18
-72 -20 -80 -2 -8 -8 -35 -15 -60 -7 -25 -13 -52 -15 -60 -4 -17 -63 -254 -95
-380 -12 -47 -28 -110 -35 -140 -14 -62 -15 -60 -46 60 -27 109 -30 121 -34
145 -2 11 -18 74 -35 140 -18 66 -33 128 -35 138 -2 10 -7 27 -10 37 -3 10 -8
28 -10 39 -3 12 -7 30 -10 42 -2 11 -7 30 -11 42 -4 12 -9 31 -10 42 -2 11
-22 90 -44 175 -22 85 -42 164 -44 175 -2 11 -9 40 -16 65 -7 25 -14 54 -16
65 -1 11 -3 20 -4 20 -1 0 -4 9 -6 20 -4 18 -11 46 -13 53 -1 1 -1 3 -1 5 -3
11 -25 98 -60 237 -41 163 -46 180 -55 221 -2 11 -7 30 -11 42 -4 12 -8 31
-10 42 -2 11 -13 56 -25 100 -11 44 -22 87 -24 95 -2 8 -22 89 -45 180 -23 91
-43 173 -45 183 -2 10 -7 28 -11 40 -4 12 -8 31 -10 42 -2 11 -11 47 -20 80
-9 33 -30 114 -46 180 -16 66 -30 127 -33 135 -2 8 -22 89 -45 180 -24 91 -44
172 -45 180 -1 8 -5 22 -8 30 -5 14 -57 225 -81 328 -2 9 -15 61 -29 115 -14
53 -21 97 -16 97 5 0 293 -142 639 -315z"/>
</g>
</svg>
